<svg id="Layer_1" data-name="Layer 1" xmlns="http://www.w3.org/2000/svg" viewBox="0 0 684.11 408.21"><defs><style>.cls-1{fill:#989898;}.cls-2{fill:none;}</style></defs><title>grey_CODELCO</title><path class="cls-1" d="M356.52,211.66h0v19.61h63v19.15h-63v9.81H327.59v-9.81h-63V231.27h63V211.66c-78.85-4.2-140.44-41.56-140.44-87.33,0-48.1,69-86.86,154.91-86.86C427.45,37.47,497,76.23,497,124.33c0,45.77-61.59,83.13-140.45,87.33m-97-87.33h0a82.28,82.28,0,0,1,49.46-75.19c-67.66,8.41-112.45,42-112.45,75.19,0,33.63,44.79,67.25,112.45,75.66a82.45,82.45,0,0,1-49.46-75.66M374.72,49.14h0a82.24,82.24,0,0,1,0,150.85c67.66-8.41,112.45-42,112.45-75.66,0-33.16-44.79-66.78-112.45-75.19"/><path class="cls-1" d="M145.15,346.15h0V363a65.4,65.4,0,0,1-30.33,7.94c-14,0-25.2-4.2-33.13-12.61-7.47-7.47-11.2-16.35-11.2-27.56a38.08,38.08,0,0,1,11.67-28c8.86-7.94,20.06-12.14,34.53-12.14,10.73,0,20.06,2.33,27.53,6.53v17.74c-9.34-5.6-18.2-7.93-26.6-7.93-7.93,0-14.47,1.87-19.6,6.53-5.6,4.21-7.93,10.28-7.93,17.28A22,22,0,0,0,97.56,348c5.13,4.2,11.66,6.53,19.59,6.53a43.38,43.38,0,0,0,13.54-2.33c3.26-.94,7.92-3.27,14.46-6.08"/><path class="cls-1" d="M217,330.74h0c0-7.47-2.33-13.07-6.53-17.28-4.19-4.66-10.26-6.53-17.26-6.53s-12.6,1.87-17.26,6.53c-4.2,4.21-6.54,9.81-6.54,17.28,0,7,2.34,13.08,6.54,17.29a24.74,24.74,0,0,0,17.26,6.53c7,0,13.07-2.33,17.26-6.53S217,337.75,217,330.74m19.14,0h0c0,10.75-3.74,19.62-11.2,27.56-8.4,8.4-18.66,12.61-31.73,12.61s-23.8-4.21-31.73-12.61c-7.47-7.94-11.2-16.81-11.2-27.56A40.88,40.88,0,0,1,161,303.19q12.58-12.6,32.19-12.61,20.29,0,32.19,12.61a40.93,40.93,0,0,1,10.74,27.55"/><path class="cls-1" d="M261.33,306h0V355.5h12.6c8.87,0,15.4-2.81,19.6-7.94,3.73-4.68,5.13-10.28,5.13-16.82,0-7.47-1.86-13.07-5.6-17.74-4.66-4.67-10.73-7-19.6-7ZM242.2,291.52h34.06c13.07,0,23.8,3.73,31.73,11.67,7,7,10.27,16.35,10.27,27.55,0,11.68-3.27,21-10.73,28Q296.33,370,273.93,370H242.2Z"/><polygon class="cls-1" points="381.25 355.5 381.25 355.5 381.25 369.97 324.79 369.97 324.79 291.52 380.79 291.52 380.79 306 343.93 306 343.93 322.34 378.92 322.34 378.92 336.82 343.93 336.82 343.93 355.5 381.25 355.5"/><polygon class="cls-1" points="446.57 355.5 446.57 355.5 446.57 369.97 388.25 369.97 388.25 291.52 407.38 291.52 407.38 355.5 446.57 355.5"/><path class="cls-1" d="M522.63,346.15h0V363c-10.26,5.13-20.06,7.94-30.33,7.94q-21,0-33.59-12.61c-7.47-7.47-11.2-16.35-11.2-27.56,0-10.73,4.2-20.08,12.13-28,8.87-7.94,20.06-12.14,34.06-12.14,11.2,0,20.54,2.33,28,6.53v17.74c-9.33-5.6-18.2-7.93-26.6-7.93s-14.93,1.87-20.06,6.53a21.77,21.77,0,0,0-7.93,17.28c0,7,2.8,12.61,7.93,17.29,5.13,4.2,11.66,6.53,19.6,6.53a45.79,45.79,0,0,0,13.53-2.33c2.79-.94,7.93-3.27,14.46-6.08"/><path class="cls-1" d="M594,330.74h0c0-7.47-1.86-13.07-6.06-17.28-4.67-4.66-10.27-6.53-17.27-6.53-7.46,0-13.06,1.87-17.26,6.53-4.67,4.21-6.53,9.81-6.53,17.28,0,7,1.86,13.08,6.53,17.29,4.2,4.2,9.8,6.53,17.26,6.53A24.78,24.78,0,0,0,588,348c4.2-4.21,6.06-10.28,6.06-17.29m19.6,0h0c0,10.75-3.73,19.62-11.67,27.56-7.93,8.4-18.66,12.61-31.26,12.61q-19.59,0-32.19-12.61c-7.47-7.94-11.2-16.81-11.2-27.56a39.26,39.26,0,0,1,11.2-27.55q11.89-12.6,32.19-12.61c13.07,0,23.8,4.21,31.73,12.61a39.26,39.26,0,0,1,11.2,27.55"/><rect class="cls-2" width="684.11" height="408.38"/></svg>